<svg width="48" height="48" viewBox="0 0 48 48" version="1.1" xmlns="http://www.w3.org/2000/svg" xmlns:xlink="http://www.w3.org/1999/xlink">
  <title>next-page</title>
  <desc>Created using Figma</desc>
  <g id="Canvas" transform="translate(1042 22)">
    <g id="next-page">
      <g id="Rectangle 3" filter="url(#filter0_d)">
        <use xlink:href="#path0_fill" transform="translate(-1038 -20)" fill="#FFFFFF"/>
        <mask id="mask0_outline_ins">
          <use xlink:href="#path0_fill" fill="white" transform="translate(-1038 -20)"/>
        </mask>
        <g mask="url(#mask0_outline_ins)">
          <use xlink:href="#path1_stroke_2x" transform="translate(-1038 -20)" fill="#484848" fill-opacity="0.2"/>
        </g>
      </g>
      <g id="right-ic20">
        <g id="Shape">
          <use xlink:href="#path2_fill" transform="translate(-1022 -9.00023)"/>
        </g>
      </g>
    </g>
  </g>
  <defs>
    <filter id="filter0_d" filterUnits="userSpaceOnUse" x="-1042" y="-22" width="48" height="48" color-interpolation-filters="sRGB">
      <feFlood flood-opacity="0" result="BackgroundImageFix"/>
      <feColorMatrix in="SourceAlpha" type="matrix" values="0 0 0 0 0 0 0 0 0 0 0 0 0 0 0 0 0 0 255 0"/>
      <feOffset dx="0" dy="2"/>
      <feGaussianBlur stdDeviation="2"/>
      <feColorMatrix type="matrix" values="0 0 0 0 0.282353 0 0 0 0 0.282353 0 0 0 0 0.282353 0 0 0 0.16 0"/>
      <feBlend mode="normal" in2="BackgroundImageFix" result="effect1_dropShadow"/>
      <feBlend mode="normal" in="SourceGraphic" in2="effect1_dropShadow" result="shape"/>
    </filter>
    <path id="path0_fill" fill-rule="evenodd" d="M 0 20C 0 8.9543 8.9543 0 20 0C 31.0457 0 40 8.95431 40 20C 40 31.0457 31.0457 40 20 40C 8.9543 40 0 31.0457 0 20Z"/>
    <path id="path1_stroke_2x" d="M 20 -0.5C 8.67816 -0.5 -0.5 8.67816 -0.5 20L 0.5 20C 0.5 9.23045 9.23045 0.5 20 0.5L 20 -0.5ZM 20 0.5C 30.7696 0.5 39.5 9.23045 39.5 20L 40.5 20C 40.5 8.67816 31.3218 -0.5 20 -0.5L 20 0.5ZM 39.5 20C 39.5 30.7696 30.7696 39.5 20 39.5L 20 40.5C 31.3218 40.5 40.5 31.3218 40.5 20L 39.5 20ZM 20 39.5C 9.23045 39.5 0.5 30.7696 0.5 20L -0.5 20C -0.5 31.3218 8.67816 40.5 20 40.5L 20 39.5Z"/>
    <path id="path2_fill" d="M 0.292725 1.70723C 0.0401386 1.45446 -0.0584125 1.08614 0.0341954 0.741012C 0.126803 0.395883 0.396501 0.126376 0.741695 0.0340124C 1.08689 -0.0583514 1.45514 0.04046 1.70773 0.293225L 9.70273 8.29323C 10.0931 8.68373 10.0931 9.31673 9.70273 9.70723L 1.70773 17.7072C 1.45514 17.96 1.08689 18.0588 0.741695 17.9664C 0.396501 17.8741 0.126803 17.6046 0.0341954 17.2594C -0.0584125 16.9143 0.0401386 16.546 0.292725 16.2932L 7.58273 9.00023L 0.292725 1.70723Z"/>
  </defs>
</svg>
